<svg width="638" height="150" viewBox="0 0 638 150" fill="none" xmlns="http://www.w3.org/2000/svg">
<path d="M46.4298 141.567C47.9046 144.711 50.4856 146.006 52.5135 146.006H53.0666V146.746H37.3963V146.006H37.9494C39.793 146.006 41.6365 144.341 40.5304 141.567L36.1058 129.544H17.4859L12.877 141.567C11.9552 144.341 13.7988 146.006 15.458 146.006H16.011V146.746H2V146.006H2.55307C4.76534 146.006 7.34632 144.711 8.63681 141.567L24.4914 103.834C24.4914 103.834 27.0724 98.1004 27.0724 96.6207H27.8098L46.4298 141.567ZM35.5528 127.51L27.0724 104.944L18.2233 127.51H35.5528Z" fill="white" stroke="white" stroke-width="3" stroke-miterlimit="10" stroke-linecap="round" stroke-linejoin="round"/>
<path d="M125.703 141.567C126.072 144.341 128.284 146.006 130.865 146.006H131.972V146.746H116.854V146.006H117.961C119.435 146.006 120.91 144.526 120.726 143.047L117.407 107.719L102.659 140.457C102.659 140.457 100.631 144.711 100.262 147.671H99.525L81.6424 108.828L78.5084 143.047C78.324 144.526 79.7989 146.006 81.2737 146.006H82.3799V146.746H68.9219V146.006H70.028C72.609 146.006 74.8213 144.341 75.19 141.567L80.5363 96.6207H81.2737L100.815 138.977L119.62 96.6207H120.173L125.703 141.567Z" fill="white" stroke="white" stroke-width="3" stroke-miterlimit="10" stroke-linecap="round" stroke-linejoin="round"/>
<path d="M181.562 146.746H152.434V146.006H153.355C155.752 146.006 157.78 143.971 157.78 141.567V102.355C157.596 100.135 155.568 98.2853 153.355 98.2853H152.434V97.5455H172.897C175.847 97.5455 179.903 96.8056 181.193 96.2507V98.2853V99.3951V104.944H180.456V103.834C180.456 101.615 178.796 99.765 176.584 99.5801H162.389V121.221H174.188C176.031 121.221 177.506 119.741 177.506 117.707V116.597H178.243V127.695H177.506V126.585C177.506 124.735 176.031 123.255 174.188 123.07H162.389V144.156H172.344C179.718 144.156 182.668 140.272 184.696 134.908H185.433L181.562 146.746Z" fill="white" stroke="white" stroke-width="3" stroke-miterlimit="10" stroke-linecap="round" stroke-linejoin="round"/>
<path d="M237.422 97.5455C240.372 97.5455 244.612 96.8056 245.903 96.2507V105.129H245.165V103.834C245.165 101.615 243.322 99.765 241.11 99.5801H227.836V141.567C227.836 143.971 229.864 146.006 232.26 146.006H233.182V146.746H217.881V146.006H218.803C221.199 146.006 223.227 144.156 223.227 141.752V99.5801H209.953C207.741 99.765 205.898 101.43 205.898 103.834V105.129H205.16V96.2507C206.451 96.8056 210.506 97.5455 213.641 97.5455H237.422Z" fill="white" stroke="white" stroke-width="3" stroke-miterlimit="10" stroke-linecap="round" stroke-linejoin="round"/>
<path d="M285.723 97.5455C294.203 97.5455 299.365 102.54 299.365 110.678C299.365 117.522 294.203 123.995 287.567 123.995C289.041 124.735 291.254 126.955 292.544 128.989C292.544 128.989 298.628 137.683 301.209 140.642C303.974 143.786 306.555 145.821 310.795 146.006V146.746H306.924C300.471 146.746 296.969 143.232 294.756 140.642C294.019 139.717 286.092 128.25 285.539 127.51C283.695 125.29 281.667 122.701 279.086 122.701V121.961C279.086 121.961 280.745 121.961 282.773 121.961C286.46 121.776 291.622 121.036 293.65 114.747C294.019 113.822 294.203 112.158 294.019 110.493C293.835 104.204 290.516 100.135 285.354 99.7651C281.852 99.5801 277.611 99.7651 276.69 99.7651V141.567C276.69 143.971 278.717 146.006 281.114 146.006H282.036V146.746H266.734V146.006H267.656C270.053 146.006 272.081 143.971 272.081 141.567V102.725C272.081 100.32 270.053 98.2854 267.656 98.2854H266.734V97.5455H285.723Z" fill="white" stroke="white" stroke-width="3" stroke-miterlimit="10" stroke-linecap="round" stroke-linejoin="round"/>
<path d="M344.901 146.746H329.6V146.006H330.521C332.918 146.006 334.946 143.971 334.946 141.567V102.725C334.946 100.32 332.918 98.2854 330.521 98.2854H329.6V97.5455H344.901V98.2854H343.979C341.583 98.2854 339.555 100.135 339.555 102.725V141.567C339.555 143.971 341.583 146.006 343.979 146.006H344.901V146.746Z" fill="white" stroke="white" stroke-width="3" stroke-miterlimit="10" stroke-linecap="round" stroke-linejoin="round"/>
<path d="M419.934 97.5455V98.2854H418.644C416.247 98.2854 414.403 100.135 414.403 102.54V138.792C414.403 143.232 414.956 147.671 414.956 147.671H414.403L376.242 106.794V141.752C376.242 144.156 378.27 146.006 380.482 146.006H381.772V146.746H367.393V146.006H368.683C371.08 146.006 372.923 144.156 372.923 141.752V105.314C372.923 100.505 372.37 96.6207 372.37 96.6207H373.108L411.085 137.313V102.54C411.085 100.135 409.057 98.2854 406.845 98.2854H405.554V97.5455H419.934V97.5455Z" fill="white" stroke="white" stroke-width="3" stroke-miterlimit="10" stroke-linecap="round" stroke-linejoin="round"/>
<path d="M471.739 146.746H442.795V146.006H443.717C446.113 146.006 448.141 143.971 448.141 141.567V102.355C447.957 100.135 445.929 98.2853 443.717 98.2853H442.795V97.5455H463.258C466.208 97.5455 470.264 96.8056 471.554 96.2507V98.2853V99.3951V104.944H470.817V103.834C470.817 101.615 469.158 99.765 466.946 99.5801H452.75V121.221H464.549C466.392 121.221 467.867 119.741 467.867 117.707V116.597H468.605V127.695H467.867V126.585C467.867 124.735 466.392 123.255 464.549 123.07H452.75V144.156H462.705C470.08 144.156 473.029 140.272 475.057 134.908H475.795L471.739 146.746Z" fill="white" stroke="white" stroke-width="3" stroke-miterlimit="10" stroke-linecap="round" stroke-linejoin="round"/>
<path d="M518.749 146.931H507.688V146.376H508.241C510.084 146.376 511.375 144.896 511.375 143.231V115.302C511.375 113.637 509.9 112.158 508.241 112.158H507.688V111.603H518.565V112.158H518.196C516.537 112.158 515.062 113.637 515.062 115.302V143.231C515.062 144.896 516.537 146.376 518.196 146.376H518.749V146.931Z" fill="white" stroke="white" stroke-width="3" stroke-miterlimit="10" stroke-linecap="round" stroke-linejoin="round"/>
<path d="M570 116.782V117.337H569.078C567.603 117.337 566.313 118.446 566.313 119.926V141.382C566.313 144.711 566.866 147.856 566.866 147.856H566.313L540.319 122.886V143.786C540.319 145.266 541.609 146.376 543.084 146.376H544.006V146.931H534.604V146.376H535.525C537 146.376 538.291 145.266 538.291 143.786V122.331C538.291 118.816 537.738 116.042 537.738 116.042H538.291L564.285 140.642V119.741C564.285 118.261 562.994 117.152 561.519 117.152H560.598V116.597H570V116.782Z" fill="white" stroke="white" stroke-width="3" stroke-miterlimit="10" stroke-linecap="round" stroke-linejoin="round"/>
<path d="M616.275 134.353L615.721 141.197C613.141 145.266 607.794 147.671 601.895 147.671C591.755 147.671 585.303 141.567 585.303 131.949C585.303 122.146 591.755 116.227 601.895 116.227C606.135 116.227 610.56 117.337 613.694 119.186L614.8 126.215H614.431C612.956 120.111 608.163 117.522 602.079 117.522C594.152 117.522 589.174 122.886 589.174 131.764C589.174 140.457 594.152 146.006 602.079 146.006C609.638 146.006 615.353 142.492 615.906 134.168L616.275 134.353Z" fill="white" stroke="white" stroke-width="3" stroke-miterlimit="10" stroke-linecap="round" stroke-linejoin="round"/>
<path d="M631.574 144.896C631.574 143.602 632.496 142.677 633.787 142.677C635.077 142.677 635.999 143.602 635.999 144.896C635.999 146.191 635.077 147.116 633.787 147.116C632.496 147.116 631.574 146.191 631.574 144.896Z" fill="white" stroke="white" stroke-width="3" stroke-miterlimit="10" stroke-linecap="round" stroke-linejoin="round"/>
<path d="M84.8798 39.138H86.6018V13.896H98.4038V12.258H84.8798V39.138ZM106.384 26.076V23.64H108.946V26.076H106.384ZM108.946 20.028V22.422H106.384V20.028H108.946ZM115.792 20.028V22.422H113.23V20.028H115.792ZM115.792 26.076H113.23V23.64H115.792V26.076ZM116.254 29.856H113.23V27.294H115.792V28.008H116.464C116.884 28.008 117.388 27.924 117.85 27.798L116.254 29.856ZM108.946 29.856H100.924L101.26 31.032H108.946V33.93H109.744C111.34 33.93 113.23 33.132 113.23 32.754V31.032H121C121.588 31.032 121.966 30.822 122.092 30.36C121.042 29.394 119.446 28.134 118.732 27.546C119.278 27.336 119.698 27.084 119.698 26.958V20.28C120.244 20.196 120.622 19.986 120.79 19.734L117.22 17.13L115.498 18.852H113.23V16.752H120.244C120.79 16.752 121.21 16.542 121.336 16.08C119.95 14.778 117.724 13.014 117.724 13.014L115.75 15.534H113.23V13.812C114.154 13.686 114.448 13.308 114.532 12.804L108.946 12.258V15.534H101.512L101.848 16.752H108.946V18.852H106.594L102.73 17.256V28.932H103.276C104.788 28.932 106.384 28.092 106.384 27.756V27.294H108.946V29.856ZM115.792 31.41C115.246 32.46 114.322 33.972 113.356 35.4C111.886 34.686 109.66 34.308 106.468 34.686L106.174 35.106C108.4 36.198 111.382 38.424 112.768 40.272C115.246 40.944 116.548 38.592 115.078 36.702C116.8 35.946 118.606 35.106 119.74 34.434C120.412 34.644 120.832 34.56 121.042 34.224L115.792 31.41ZM101.512 51.15C106.174 50.562 111.256 49.05 114.28 47.496C115.162 47.748 115.54 47.58 115.834 47.202L111.298 43.968C109.198 46.11 104.956 48.966 101.176 50.604L101.512 51.15ZM125.074 45.396C129.526 47.118 133.18 49.722 134.692 51.36C139.018 52.704 140.614 43.884 125.2 44.85L125.074 45.396ZM127.51 37.752C128.686 38.466 130.03 39.432 131.206 40.566C126.88 40.608 122.722 40.65 118.9 40.692C122.386 39.264 125.914 37.458 128.056 36.03C129.022 36.156 129.4 35.988 129.652 35.568L124.738 32.838C122.806 34.98 119.194 38.298 115.96 40.734C109.828 40.776 104.788 40.776 101.68 40.734L104.158 45.354C104.62 45.27 105.04 44.976 105.292 44.472C109.996 44.052 114.154 43.632 117.85 43.296V51.696H118.732C121.21 51.696 122.722 50.982 122.722 50.772V42.792C126.46 42.414 129.652 42.078 132.382 41.7C133.264 42.624 134.02 43.59 134.524 44.472C139.186 46.362 140.698 37.332 127.804 37.374L127.51 37.752ZM131.668 24.48C131.038 25.698 130.156 26.832 129.106 27.882C127.51 27 126.124 25.866 125.116 24.48H131.668ZM134.818 21.708H135.196C138.514 21.708 139.858 21.288 139.858 19.776C139.858 19.146 139.648 18.768 138.724 18.306L138.598 15.87H138.136C137.674 17.088 137.254 17.97 137.002 18.306C136.834 18.516 136.582 18.558 136.372 18.558H135.7H134.902C134.482 18.558 134.398 18.474 134.398 18.096V16.08C135.028 15.954 135.448 15.744 135.7 15.492L132.088 12.468L130.072 14.568H128.182L123.646 12.804V15.702C123.646 17.676 123.478 20.364 120.916 22.59L121.252 23.052C126.712 21.33 127.51 17.718 127.552 15.744H130.492V18.684C130.492 20.868 130.744 21.708 133.516 21.708H133.6L131.836 23.304H121.462L121.84 24.48H124.108C124.864 26.496 125.914 28.176 127.174 29.604C125.242 31.116 122.89 32.334 120.286 33.258L120.58 33.846C123.646 33.258 126.46 32.376 128.896 31.2C131.122 33.006 133.852 34.266 137.128 35.232C137.506 33.216 138.556 31.914 140.152 31.452V30.99C137.296 30.696 134.566 30.15 132.172 29.268C133.894 28.05 135.28 26.622 136.372 24.942C137.296 24.858 137.716 24.732 138.01 24.396L134.818 21.708ZM173.878 30.108C174.886 30.108 175.474 29.394 175.474 28.47C175.474 27.672 175.096 26.916 174.214 26.076C172.87 24.858 170.896 23.934 168.544 23.262L168.082 23.808C169.93 25.53 171.064 27.252 171.904 28.428C172.618 29.436 173.164 30.108 173.878 30.108ZM177.994 26.412C178.876 26.412 179.464 25.824 179.464 24.9C179.464 23.892 179.002 23.01 177.952 22.212C176.734 21.33 174.886 20.574 172.408 19.986L171.988 20.574C174.13 22.296 175.096 23.682 175.894 24.69C176.734 25.782 177.154 26.412 177.994 26.412ZM162.916 17.382C162.916 17.97 162.664 18.432 162.034 19.23C160.396 21.372 154.348 27.672 152.122 30.402C151.24 31.452 150.904 32.208 150.904 33.09C150.904 33.888 151.366 34.938 152.416 35.778C157.33 39.978 160.606 43.212 162.244 45.858C163.378 47.664 163.84 48.63 164.344 49.554C164.848 50.352 165.688 51.066 166.822 51.066C169.006 51.066 169.72 49.512 169.72 48.168C169.72 46.74 169.216 45.354 167.746 43.506C164.89 39.894 160.186 37.164 156.154 34.308C155.272 33.72 154.642 33.132 154.642 32.544C154.642 31.998 155.062 31.452 156.154 30.36C157.918 28.596 162.916 24.606 165.982 22.464C167.788 21.246 169.09 20.91 169.09 19.566C169.09 18.096 167.116 15.66 164.722 14.442C163.672 13.938 162.496 13.77 161.194 13.644L160.774 14.274C161.992 15.366 162.916 16.458 162.916 17.382ZM198.364 24.942H196.642V50.184H184.84V51.822H198.364V24.942ZM232.888 21.75C232.846 22.716 233.014 23.85 233.266 24.606C233.77 26.202 235.828 28.428 237.214 28.428C238.306 28.428 239.482 27.63 241.288 27.21C243.85 26.622 252.292 25.488 254.14 25.488C254.518 25.488 254.644 25.656 254.602 26.034C254.476 28.344 253.552 34.224 252.712 38.76C247.714 39.264 238.222 40.356 236.29 40.356C234.568 40.356 233.476 39.432 232.258 38.214L231.67 38.466C231.586 39.18 231.796 40.524 232.174 41.49C232.846 43.128 234.988 45.186 236.71 45.186C237.928 45.186 238.936 44.598 240.784 44.136C242.884 43.59 247.168 42.75 251.2 42.75C254.686 42.75 256.954 43.338 258.466 43.338C259.81 43.338 260.482 42.834 260.482 41.868C260.482 40.566 259.39 39.096 257.332 38.634C258.34 34.728 259.264 30.822 259.894 28.47C260.272 27.042 261.658 26.37 261.658 25.194C261.658 23.388 257.248 20.616 255.694 20.616C254.518 20.616 254.224 21.876 252.418 22.086C250.108 22.38 239.314 23.556 237.088 23.556C235.618 23.556 234.82 22.674 233.518 21.498L232.888 21.75ZM274.888 19.104C278.92 22.17 279.97 23.724 281.944 26.496C282.994 27.966 283.876 28.722 285.22 28.722C286.858 28.722 287.95 27.42 287.95 25.908C287.95 21.582 281.062 19.104 275.266 18.432L274.888 19.104ZM279.466 42.12C277.954 42.12 276.484 40.524 275.476 39.516L274.888 39.894C274.888 41.112 275.308 42.75 275.812 43.716C276.652 45.396 279.592 47.874 281.986 47.874C283.204 47.874 283.75 46.488 285.094 45.648C294.838 39.684 302.482 32.292 307.228 23.094L306.472 22.59C300.424 30.696 284.002 42.12 279.466 42.12ZM332.596 16.542C334.654 17.004 335.536 17.298 335.662 18.432C335.956 20.238 335.998 22.548 335.956 25.656C333.562 25.908 330.58 26.244 328.27 26.454C328.27 25.194 328.312 23.934 328.354 23.22C328.48 21.708 329.194 21.624 329.194 20.658C329.194 18.978 325.876 17.508 324.238 17.508C323.188 17.508 321.928 17.97 320.92 18.558L320.962 19.146C322.894 19.692 323.818 20.112 324.028 21.204C324.196 22.128 324.28 24.438 324.322 26.874C321.76 27.126 318.19 27.546 316.762 27.546C315.586 27.546 314.872 26.832 313.738 25.53L313.192 25.698C313.108 26.832 313.192 28.05 313.486 28.68C313.906 29.604 315.544 32.04 317.182 32.04C318.106 32.04 319.072 31.368 320.164 30.99C321.172 30.654 322.6 30.318 324.322 30.024C324.238 33.804 323.566 35.106 323.566 36.156C323.566 37.878 324.742 40.356 326.296 40.356C327.682 40.356 328.312 39.558 328.312 37.878C328.312 35.946 328.27 32.88 328.27 29.436C330.454 29.184 333.31 28.89 335.956 28.68C335.872 33.594 335.284 38.592 333.604 41.406C331.252 45.438 327.556 47.958 324.07 49.764L324.448 50.478C330.118 48.966 334.654 46.362 337.426 42.33C339.736 39.096 340.114 34.308 340.324 28.47H340.702C344.902 28.47 347.128 29.184 348.64 29.184C349.816 29.184 350.53 28.932 350.53 27.546C350.53 25.53 347.716 24.396 345.238 24.396C344.398 24.396 343.894 24.858 340.324 25.236C340.324 24.018 340.366 22.674 340.408 21.288C340.534 18.894 341.5 19.104 341.5 18.054C341.5 16.626 338.308 14.694 336.082 14.694C335.032 14.694 333.814 15.24 332.554 15.912L332.596 16.542ZM372.16 19.566C374.134 20.028 375.268 20.742 375.352 21.918C375.604 25.992 375.436 36.702 375.226 38.76C375.058 40.44 374.512 40.986 374.512 41.952C374.512 43.17 376.99 46.278 378.544 46.278C379.72 46.278 380.518 44.85 381.484 44.22C386.692 40.65 392.614 35.358 396.142 29.52L395.47 28.974C390.724 33.3 384.97 37.29 380.308 39.222C379.678 39.474 379.342 39.264 379.342 38.592C379.3 35.61 379.594 26.748 379.93 24.312C380.14 22.758 381.19 22.548 381.19 21.414C381.19 20.028 377.788 17.928 375.52 17.928C374.344 17.928 373.462 18.138 372.118 18.852L372.16 19.566ZM366.112 27.084C366.112 33.132 362.038 42.12 355.654 47.874L356.2 48.504C364.978 44.01 369.556 36.744 370.984 29.604C371.194 28.554 372.076 27.756 372.076 26.706C372.076 24.984 368.296 22.926 366.364 22.884C365.104 22.884 364.054 23.262 363.13 23.598V24.312C364.558 24.942 366.112 25.74 366.112 27.084ZM407.23 17.298C408.742 20.28 410.086 21.834 412.732 21.834C416.26 21.834 423.022 20.7 426.382 19.944C427.726 19.65 428.104 19.104 428.104 18.264C428.104 16.584 426.34 15.702 423.568 15.702C422.98 15.702 422.35 16.29 420.292 16.836C418.528 17.298 415.294 18.138 412.228 18.138C410.842 18.138 409.372 17.97 407.65 16.92L407.23 17.298ZM401.308 26.244C401.224 27.252 401.266 28.26 401.56 29.016C402.064 30.444 404.164 32.46 405.592 32.46C406.81 32.418 408.322 31.704 409.75 31.242C411.094 30.822 414.118 30.15 416.932 29.73C417.184 30.192 417.268 30.696 417.268 31.158C417.268 34.434 414.076 43.716 404.92 49.974L405.55 50.73C415 46.698 419.2 40.356 421.3 35.568C422.266 33.51 423.316 33.048 423.316 31.998C423.316 31.074 422.308 30.192 420.796 29.268C423.652 28.974 426.34 28.848 428.188 28.848C430.582 28.848 432.724 29.31 433.648 29.31C434.782 29.31 435.412 28.974 435.412 27.588C435.412 25.908 432.598 24.522 429.952 24.522C429.532 24.522 428.65 25.026 425.794 25.362C420.124 25.992 407.818 27.84 404.962 27.84C403.66 27.84 402.904 27.042 401.812 26.034L401.308 26.244ZM457.459 23.766C458.215 24.144 459.265 24.858 459.265 25.53C459.265 28.008 450.361 37.626 442.759 42.078L443.095 42.666C448.681 40.986 453.721 37.416 456.073 35.568C456.157 35.904 456.199 36.24 456.199 36.66C456.199 38.088 456.199 41.07 455.779 44.556C455.653 45.606 455.443 46.362 455.443 46.95C455.443 48.756 456.325 50.436 458.173 50.436C459.517 50.436 460.231 49.386 460.231 48C460.231 46.404 459.937 41.994 460.063 37.794C460.105 36.828 460.399 36.198 460.399 35.61C460.399 34.938 459.559 34.308 458.467 33.51C460.315 31.788 461.869 30.108 462.961 29.016C463.843 28.176 464.683 28.176 464.683 27.126C464.683 25.866 462.583 23.976 460.651 23.43C459.601 23.094 458.509 23.178 457.585 23.262L457.459 23.766ZM484.465 19.104C488.497 22.17 489.547 23.724 491.521 26.496C492.571 27.966 493.453 28.722 494.797 28.722C496.435 28.722 497.527 27.42 497.527 25.908C497.527 21.582 490.639 19.104 484.843 18.432L484.465 19.104ZM489.043 42.12C487.531 42.12 486.061 40.524 485.053 39.516L484.465 39.894C484.465 41.112 484.885 42.75 485.389 43.716C486.229 45.396 489.169 47.874 491.563 47.874C492.781 47.874 493.327 46.488 494.671 45.648C504.415 39.684 512.059 32.292 516.805 23.094L516.049 22.59C510.001 30.696 493.579 42.12 489.043 42.12ZM538.916 22.632C539.462 21.834 540.008 21.078 540.47 20.28C541.184 19.188 541.73 19.02 541.73 18.096C541.73 17.046 538.496 15.282 535.724 15.156C534.338 15.072 533.582 15.24 532.784 15.408L532.658 15.996C534.002 16.71 535.01 17.718 535.01 18.516C535.01 21.204 529.508 29.52 522.704 35.106L523.25 35.862C528.668 33.51 533.54 29.352 537.194 24.9C537.95 25.488 538.622 25.908 539.126 25.908C539.924 25.908 540.596 25.656 541.478 25.362C542.696 24.984 545.72 24.312 546.602 24.312C547.106 24.312 547.316 24.522 547.106 25.11C543.578 33.888 533.834 44.514 523.166 50.226L523.67 51.024C537.404 46.236 546.056 37.71 552.23 27C552.986 25.74 554.624 25.32 554.624 24.144C554.624 22.422 550.34 20.196 549.08 20.196C548.156 20.196 547.442 21.204 546.392 21.54C545.216 21.96 540.386 22.632 538.916 22.632ZM549.29 15.66C551.264 17.34 552.272 18.852 553.07 19.986C553.784 20.994 554.288 21.582 555.002 21.582C555.884 21.582 556.514 20.91 556.514 20.028C556.514 19.23 556.22 18.516 555.296 17.676C553.994 16.5 552.02 15.702 549.668 15.114L549.29 15.66ZM552.944 12.972C555.17 14.652 556.01 15.87 556.808 16.836C557.606 17.886 558.068 18.558 558.908 18.558C559.748 18.558 560.294 17.97 560.294 17.046C560.294 16.08 559.874 15.24 558.782 14.442C557.606 13.602 555.716 12.888 553.322 12.426L552.944 12.972Z" fill="white"/>
</svg>
