<svg width="741" height="133" viewBox="0 0 741 133" fill="none" xmlns="http://www.w3.org/2000/svg">
<path d="M107.851 92.3755L108.079 92.4778L107.851 92.3755L107.849 92.3812L93.6901 126.211L93.6893 126.213C92.576 128.937 90.3638 130.038 88.4877 130.038H87.9938C87.8557 130.038 87.7438 130.15 87.7438 130.288V130.951C87.7438 131.089 87.8557 131.201 87.9938 131.201H100.506C100.644 131.201 100.756 131.089 100.756 130.951V130.288C100.756 130.15 100.644 130.038 100.506 130.038H100.012C99.3516 130.038 98.645 129.703 98.1982 129.084C97.7577 128.474 97.5556 127.567 97.9429 126.392L101.995 115.779H118.277L122.168 126.394L122.168 126.394L122.171 126.4C122.639 127.579 122.471 128.481 122.036 129.084C121.594 129.696 120.85 130.038 120.098 130.038H119.604C119.466 130.038 119.354 130.15 119.354 130.288V130.951C119.354 131.089 119.466 131.201 119.604 131.201H133.598C133.736 131.201 133.848 131.089 133.848 130.951V130.288C133.848 130.15 133.736 130.038 133.598 130.038H133.104C131.399 130.038 129.18 128.942 127.9 126.207L111.274 85.9149C111.235 85.8213 111.144 85.7603 111.043 85.7603H110.384C110.246 85.7603 110.134 85.8722 110.134 86.0103C110.134 86.2965 110.004 86.8301 109.786 87.5036C109.573 88.1647 109.287 88.9259 109 89.6492C108.713 90.3719 108.425 91.0537 108.21 91.5551C108.102 91.8056 108.012 92.011 107.95 92.1536C107.918 92.2248 107.894 92.2804 107.877 92.3182L107.858 92.3611L107.853 92.3719L107.852 92.3746L107.851 92.3753L107.851 92.3755ZM102.848 113.454L110.379 94.1726L117.597 113.454H102.848Z" fill="white" stroke="white" stroke-width="0.5" stroke-linejoin="round"/>
<path d="M159.281 97.9119L174.86 131.884C174.9 131.973 174.989 132.03 175.087 132.03H175.745C175.872 132.03 175.978 131.936 175.993 131.811C176.154 130.516 176.68 128.923 177.172 127.641C177.418 127.003 177.653 126.447 177.827 126.05C177.913 125.852 177.985 125.694 178.034 125.586C178.059 125.532 178.079 125.49 178.092 125.462L178.107 125.43L178.11 125.422L178.111 125.42L178.111 125.42L178.112 125.42L178.112 125.42L178.114 125.415L190.896 96.9284L193.771 127.658L193.771 127.658L193.772 127.665C193.843 128.236 193.596 128.828 193.16 129.286C192.724 129.744 192.128 130.038 191.551 130.038H190.563C190.425 130.038 190.313 130.15 190.313 130.288V130.951C190.313 131.089 190.425 131.201 190.563 131.201H204.063C204.201 131.201 204.313 131.089 204.313 130.951V130.288C204.313 130.15 204.201 130.038 204.063 130.038H203.075C200.884 130.038 199.025 128.627 198.713 126.276C198.713 126.276 198.713 126.275 198.713 126.275L193.774 85.9796C193.759 85.8542 193.653 85.76 193.526 85.76H193.032C192.933 85.76 192.844 85.8184 192.804 85.9089L176.235 123.378L159.015 85.9056C158.974 85.8169 158.885 85.76 158.788 85.76H158.129C158.003 85.76 157.896 85.8548 157.881 85.9806L153.107 126.275C153.107 126.275 153.107 126.276 153.107 126.276C152.795 128.627 150.936 130.038 148.745 130.038H147.757C147.619 130.038 147.507 130.15 147.507 130.288V130.951C147.507 131.089 147.619 131.201 147.757 131.201H159.776C159.914 131.201 160.026 131.089 160.026 130.951V130.288C160.026 130.15 159.914 130.038 159.776 130.038H158.788C158.211 130.038 157.614 129.744 157.178 129.286C156.743 128.828 156.495 128.236 156.566 127.665L156.566 127.665L156.567 127.657L159.281 97.9119Z" fill="white" stroke="white" stroke-width="0.5" stroke-linejoin="round"/>
<path d="M248.35 131.201C248.459 131.201 248.555 131.131 248.588 131.028L252.045 120.415C252.07 120.339 252.057 120.255 252.01 120.19C251.963 120.126 251.888 120.087 251.808 120.087H251.149C251.045 120.087 250.952 120.152 250.915 120.249C250.015 122.639 248.922 124.666 247.261 126.097C245.607 127.522 243.364 128.379 240.119 128.379H231.478V109.974H241.752C243.278 110.133 244.478 111.361 244.478 112.875V113.87C244.478 114.008 244.59 114.12 244.728 114.12H245.387C245.525 114.12 245.637 114.008 245.637 113.87V103.92C245.637 103.782 245.525 103.67 245.387 103.67H244.728C244.59 103.67 244.478 103.782 244.478 103.92V104.915C244.478 106.612 243.263 107.816 241.765 107.816H231.478V88.913H243.895C245.731 89.0725 247.113 90.6163 247.113 92.4772V93.4722C247.113 93.6102 247.224 93.7222 247.363 93.7222H248.021C248.159 93.7222 248.271 93.6102 248.271 93.4722V88.4972V87.5021V85.678C248.271 85.5938 248.229 85.5153 248.158 85.4691C248.088 85.4229 247.999 85.4151 247.922 85.4485C247.376 85.6841 246.209 85.9705 244.832 86.1983C243.461 86.4249 241.912 86.5888 240.612 86.5888H222.338C222.2 86.5888 222.088 86.7007 222.088 86.8388V87.5021C222.088 87.6402 222.2 87.7521 222.338 87.7521H223.161C225.003 87.7521 226.703 89.305 226.862 91.161V126.307C226.862 128.327 225.161 130.037 223.161 130.037H222.338C222.2 130.037 222.088 130.149 222.088 130.287V130.951C222.088 131.089 222.2 131.201 222.338 131.201H248.35Z" fill="white" stroke="white" stroke-width="0.5" stroke-linejoin="round"/>
<path d="M306.059 85.678C306.059 85.5938 306.016 85.5153 305.946 85.4691C305.876 85.4229 305.787 85.4151 305.71 85.4485C305.165 85.6836 303.958 85.9701 302.538 86.1981C301.126 86.4249 299.535 86.5888 298.235 86.5888H276.997C275.615 86.5888 274.024 86.4248 272.633 86.1982C271.236 85.9705 270.069 85.684 269.523 85.4485C269.446 85.4151 269.357 85.4229 269.287 85.4691C269.216 85.5153 269.174 85.5938 269.174 85.678V93.638C269.174 93.7761 269.286 93.888 269.424 93.888H270.083C270.221 93.888 270.333 93.7761 270.333 93.638V92.4772C270.333 90.4719 271.856 89.0737 273.715 88.913H285.308V126.473C285.308 128.479 283.622 130.037 281.607 130.037H280.784C280.646 130.037 280.534 130.149 280.534 130.287V130.951C280.534 131.089 280.646 131.201 280.784 131.201H294.449C294.587 131.201 294.699 131.089 294.699 130.951V130.287C294.699 130.149 294.587 130.037 294.449 130.037H293.626C291.625 130.037 289.924 128.327 289.924 126.307V88.913H301.518C303.37 89.0737 304.9 90.6308 304.9 92.4772V93.638C304.9 93.7761 305.012 93.888 305.15 93.888H305.809C305.947 93.888 306.059 93.7761 306.059 93.638V85.678Z" fill="white" stroke="white" stroke-width="0.5" stroke-linejoin="round"/>
<path d="M343.842 110.766C349.535 110.259 353.804 104.564 353.804 98.6128C353.804 94.9108 352.633 91.8973 350.476 89.8098C348.32 87.7233 345.206 86.5886 341.37 86.5886H324.413C324.275 86.5886 324.163 86.7006 324.163 86.8386V87.502C324.163 87.64 324.275 87.752 324.413 87.752H325.236C327.236 87.752 328.937 89.4625 328.937 91.482V126.307C328.937 128.327 327.236 130.037 325.236 130.037H324.413C324.275 130.037 324.163 130.149 324.163 130.287V130.95C324.163 131.088 324.275 131.2 324.413 131.2H338.078C338.216 131.2 338.328 131.088 338.328 130.95V130.287C338.328 130.149 338.216 130.037 338.078 130.037H337.254C335.254 130.037 333.553 128.327 333.553 126.307V89.0758C333.744 89.0724 333.993 89.0662 334.289 89.0588C335.823 89.0204 338.615 88.9505 341.025 89.0782C343.263 89.2397 345.09 90.2031 346.382 91.8048C347.678 93.4108 348.448 95.6757 348.529 98.4543C348.529 98.4579 348.529 98.4615 348.53 98.4651C348.53 98.4682 348.53 98.4713 348.531 98.4744C348.692 99.9415 348.527 101.39 348.217 102.169C348.215 102.174 348.213 102.179 348.212 102.185C347.327 104.939 345.768 106.462 344.037 107.323C342.298 108.189 340.368 108.396 338.73 108.479H338.726H338.715H338.704H338.694H338.683H338.673H338.662H338.652H338.641H338.63H338.62H338.609H338.599H338.588H338.578H338.567H338.557H338.546H338.536H338.526H338.515H338.505H338.494H338.484H338.473H338.463H338.453H338.442H338.432H338.421H338.411H338.401H338.39H338.38H338.37H338.359H338.349H338.339H338.329H338.318H338.308H338.298H338.288H338.277H338.267H338.257H338.247H338.236H338.226H338.216H338.206H338.196H338.186H338.176H338.165H338.155H338.145H338.135H338.125H338.115H338.105H338.095H338.085H338.075H338.065H338.055H338.045H338.035H338.025H338.015H338.005H337.995H337.985H337.975H337.965H337.955H337.945H337.935H337.926H337.916H337.906H337.896H337.886H337.877H337.867H337.857H337.847H337.837H337.828H337.818H337.808H337.799H337.789H337.779H337.769H337.76H337.75H337.741H337.731H337.721H337.712H337.702H337.693H337.683H337.673H337.664H337.654H337.645H337.635H337.626H337.616H337.607H337.598H337.588H337.579H337.569H337.56H337.551H337.541H337.532H337.523H337.513H337.504H337.495H337.485H337.476H337.467H337.458H337.448H337.439H337.43H337.421H337.412H337.403H337.393H337.384H337.375H337.366H337.357H337.348H337.339H337.33H337.321H337.312H337.303H337.294H337.285H337.276H337.267H337.258H337.249H337.24H337.232H337.223H337.214H337.205H337.196H337.188H337.179H337.17H337.161H337.153H337.144H337.135H337.126H337.118H337.109H337.101H337.092H337.083H337.075H337.066H337.058H337.049H337.041H337.032H337.024H337.015H337.007H336.998H336.99H336.981H336.973H336.965H336.956H336.948H336.94H336.931H336.923H336.915H336.907H336.898H336.89H336.882H336.874H336.866H336.858H336.85H336.841H336.833H336.825H336.817H336.809H336.801H336.793H336.785H336.777H336.769H336.761H336.753H336.746H336.738H336.73H336.722H336.714H336.706H336.699H336.691H336.683H336.675H336.668H336.66H336.652H336.645H336.637H336.63H336.622H336.614H336.607H336.599H336.592H336.584H336.577H336.569H336.562H336.555H336.547H336.54H336.533H336.525H336.518H336.511H336.503H336.496H336.489H336.482H336.474H336.467H336.46H336.453H336.446H336.439H336.432H336.425H336.418H336.411H336.404H336.397H336.39H336.383H336.376H336.369H336.362H336.355H336.349H336.342H336.335H336.328H336.322H336.315H336.308H336.301H336.295H336.288H336.282H336.275H336.268H336.262H336.255H336.249H336.242H336.236H336.23H336.223H336.217H336.21H336.204H336.198H336.191H336.185H336.179H336.173H336.167H336.16H336.154H336.148H336.142H336.136H336.13H336.124H336.118H336.112H336.106H336.1H336.094H336.088H336.082H336.076H336.07H336.065H336.059H336.053H336.047H336.042H336.036H336.03H336.025H336.019H336.013H336.008H336.002H335.997H335.991H335.986H335.98H335.975H335.969H335.964H335.959H335.953H335.948H335.943H335.938H335.932H335.927H335.922H335.917H335.912H335.906H335.901H335.896H335.891H335.886H335.881H335.876H335.871H335.867H335.862H335.857H335.852H335.847H335.842H335.838H335.833H335.828H335.824H335.819H335.814H335.81H335.805H335.801H335.796H335.791H335.787H335.783H335.778H335.774H335.769H335.765H335.761H335.756H335.752H335.748H335.744H335.74H335.735H335.731H335.727H335.723H335.719H335.715H335.711H335.707H335.703H335.699H335.695H335.692H335.688H335.684H335.68H335.676H335.673H335.669H335.665H335.662H335.658H335.655H335.651H335.648H335.644H335.641H335.637H335.634H335.63H335.627H335.624H335.62H335.617H335.614H335.611H335.608H335.604H335.601H335.598H335.595H335.592H335.589H335.586H335.583H335.58H335.577H335.575H335.572H335.569H335.566H335.563H335.561H335.558H335.555H335.553H335.55H335.548H335.545H335.543H335.54H335.538H335.535H335.533H335.53H335.528H335.526H335.524H335.521H335.519H335.517H335.515H335.513H335.511H335.509H335.507H335.505H335.503H335.501H335.499H335.497H335.495H335.493H335.492H335.49H335.488H335.486H335.485H335.483H335.482H335.48H335.478H335.477H335.476H335.474H335.473H335.471H335.47H335.469H335.467H335.466H335.465H335.464H335.463H335.462H335.461H335.459H335.458H335.457H335.457H335.456H335.455H335.454H335.453H335.452H335.452H335.451H335.45H335.449H335.449H335.448H335.448H335.447H335.447H335.446H335.446H335.445H335.445H335.445H335.445H335.444H335.444H335.444H335.444H335.444H335.444H335.443C335.305 108.479 335.193 108.591 335.193 108.729V109.392C335.193 109.53 335.305 109.642 335.443 109.642C336.508 109.642 337.48 110.178 338.407 110.99C339.255 111.733 340.039 112.682 340.8 113.605C340.87 113.69 340.939 113.774 341.009 113.858C341.21 114.129 342.386 115.825 343.794 117.855C344.201 118.441 344.627 119.055 345.055 119.671C346.964 122.422 348.906 125.21 349.242 125.633L349.242 125.633L349.247 125.64C351.238 127.98 354.43 131.2 360.304 131.2H363.761C363.899 131.2 364.011 131.088 364.011 130.95V130.287C364.011 130.153 363.906 130.043 363.772 130.037C360.086 129.876 357.839 128.112 355.388 125.313C354.244 123.997 352.317 121.395 350.669 119.113C349.847 117.974 349.096 116.917 348.551 116.145C348.279 115.76 348.058 115.445 347.905 115.227L347.728 114.975L347.683 114.91L347.671 114.893L347.67 114.892C347.083 113.964 346.29 112.998 345.478 112.18C344.93 111.628 344.365 111.135 343.842 110.766Z" fill="white" stroke="white" stroke-width="0.5" stroke-linejoin="round"/>
<path d="M394.219 131.2C394.357 131.2 394.469 131.088 394.469 130.95V130.287C394.469 130.149 394.357 130.037 394.219 130.037H393.396C391.395 130.037 389.695 128.327 389.695 126.307V91.482C389.695 89.3035 391.388 87.752 393.396 87.752H394.219C394.357 87.752 394.469 87.64 394.469 87.502V86.8386C394.469 86.7006 394.357 86.5886 394.219 86.5886H380.554C380.416 86.5886 380.304 86.7006 380.304 86.8386V87.502C380.304 87.64 380.416 87.752 380.554 87.752H381.377C383.378 87.752 385.079 89.4625 385.079 91.482V126.307C385.079 128.327 383.378 130.037 381.377 130.037H380.554C380.416 130.037 380.304 130.149 380.304 130.287V130.95C380.304 131.088 380.416 131.2 380.554 131.2H394.219Z" fill="white" stroke="white" stroke-width="0.5" stroke-linejoin="round"/>
<path d="M461.226 87.7525C461.364 87.7525 461.476 87.6406 461.476 87.5025V86.8392H461.226V86.5892H448.385C448.247 86.5892 448.135 86.7011 448.135 86.8392V87.5025C448.135 87.6406 448.247 87.7525 448.385 87.7525H449.537C451.38 87.7525 453.074 89.3042 453.074 91.3167V121.857L419.592 85.8398C419.544 85.7889 419.478 85.76 419.408 85.76H418.75C418.677 85.76 418.609 85.7914 418.561 85.8461C418.514 85.9008 418.492 85.9734 418.502 86.0451L418.502 86.0452L418.502 86.0456L418.503 86.0473L418.504 86.0546L418.508 86.0839C418.511 86.11 418.517 86.149 418.523 86.2004C418.537 86.303 418.556 86.4549 418.579 86.6507C418.625 87.0424 418.686 87.61 418.748 88.312C418.871 89.7165 418.994 91.6575 418.994 93.8042V126.473C418.994 128.493 417.458 130.038 415.457 130.038H414.305C414.167 130.038 414.055 130.15 414.055 130.288V130.951C414.055 131.089 414.167 131.201 414.305 131.201H427.146C427.284 131.201 427.396 131.089 427.396 130.951V130.288C427.396 130.15 427.284 130.038 427.146 130.038H425.994C424.151 130.038 422.457 128.486 422.457 126.473V95.7668L456.104 131.95C456.151 132.001 456.218 132.03 456.287 132.03H456.781C456.853 132.03 456.921 131.999 456.968 131.946C457.016 131.892 457.038 131.82 457.029 131.749L456.781 131.78L457.029 131.749L457.029 131.749L457.029 131.749L457.029 131.747L457.028 131.738L457.024 131.705C457.02 131.675 457.015 131.63 457.008 131.573C456.995 131.457 456.976 131.286 456.953 131.07C456.906 130.636 456.845 130.016 456.783 129.272C456.66 127.783 456.537 125.801 456.537 123.82V91.3167C456.537 89.2972 458.073 87.7525 460.074 87.7525H461.226Z" fill="white" stroke="white" stroke-width="0.5" stroke-linejoin="round"/>
<path d="M507.489 131.201C507.596 131.201 507.691 131.133 507.726 131.031L511.348 120.418C511.374 120.342 511.362 120.257 511.315 120.192C511.268 120.126 511.192 120.087 511.111 120.087H510.453C510.349 120.087 510.256 120.152 510.219 120.249C509.319 122.639 508.226 124.666 506.565 126.097C504.911 127.522 502.667 128.379 499.422 128.379H490.782V109.974H501.056C502.581 110.133 503.782 111.361 503.782 112.875V113.87C503.782 114.008 503.894 114.12 504.032 114.12H504.691C504.829 114.12 504.941 114.008 504.941 113.87V103.92C504.941 103.782 504.829 103.67 504.691 103.67H504.032C503.894 103.67 503.782 103.782 503.782 103.92V104.915C503.782 106.612 502.566 107.816 501.069 107.816H490.782V88.913H503.198C505.035 89.0725 506.416 90.6163 506.416 92.4772V93.4722C506.416 93.6102 506.528 93.7222 506.666 93.7222H507.325C507.463 93.7222 507.575 93.6102 507.575 93.4722V88.4972V87.5021V85.678C507.575 85.5938 507.532 85.5153 507.462 85.4691C507.392 85.4229 507.303 85.4151 507.226 85.4485C506.68 85.6841 505.513 85.9705 504.135 86.1983C502.765 86.4249 501.215 86.5888 499.916 86.5888H481.641C481.503 86.5888 481.391 86.7007 481.391 86.8388V87.5021C481.391 87.6402 481.503 87.7521 481.641 87.7521H482.465C484.307 87.7521 486.007 89.305 486.166 91.161V126.307C486.166 128.327 484.465 130.037 482.465 130.037H481.641C481.503 130.037 481.391 130.149 481.391 130.287V130.951C481.391 131.089 481.503 131.201 481.641 131.201H507.489Z" fill="white" stroke="white" stroke-width="0.5" stroke-linejoin="round"/>
<path d="M549.472 131.367C549.61 131.367 549.722 131.255 549.722 131.117V130.619C549.722 130.481 549.61 130.369 549.472 130.369H548.978C547.636 130.369 546.429 129.156 546.429 127.8V102.759C546.429 101.403 547.636 100.19 548.978 100.19H549.307C549.445 100.19 549.557 100.078 549.557 99.9401V99.4426C549.557 99.3046 549.445 99.1926 549.307 99.1926H539.594C539.456 99.1926 539.344 99.3046 539.344 99.4426V99.9401C539.344 100.078 539.456 100.19 539.594 100.19H540.088C541.43 100.19 542.636 101.403 542.636 102.759V127.8C542.636 129.166 541.585 130.369 540.088 130.369H539.594C539.456 130.369 539.344 130.481 539.344 130.619V131.117C539.344 131.255 539.456 131.367 539.594 131.367H549.472Z" fill="white" stroke="white" stroke-width="0.5" stroke-linejoin="round"/>
<path d="M595.241 104.833C595.379 104.833 595.491 104.721 595.491 104.583V104.086V103.92C595.491 103.782 595.379 103.67 595.241 103.67H586.844C586.706 103.67 586.594 103.782 586.594 103.92V104.417C586.594 104.555 586.706 104.667 586.844 104.667H587.668C588.868 104.667 589.887 105.571 589.887 106.739V124.896L567.096 103.241C567.049 103.197 566.987 103.172 566.923 103.172H566.429C566.355 103.172 566.284 103.206 566.236 103.264C566.189 103.322 566.17 103.398 566.184 103.471L566.184 103.471L566.184 103.471L566.184 103.471L566.185 103.472L566.186 103.477L566.189 103.498C566.193 103.516 566.198 103.544 566.205 103.58C566.218 103.653 566.237 103.761 566.26 103.901C566.306 104.18 566.367 104.586 566.428 105.09C566.551 106.099 566.673 107.498 566.673 109.061V128.297C566.673 129.466 565.654 130.369 564.454 130.369H563.631C563.493 130.369 563.381 130.481 563.381 130.619V131.117C563.381 131.255 563.493 131.367 563.631 131.367H572.027C572.165 131.367 572.277 131.255 572.277 131.117V130.619C572.277 130.481 572.165 130.369 572.027 130.369H571.204C570.004 130.369 568.984 129.466 568.984 128.297V110.147L591.775 132.126C591.821 132.171 591.883 132.196 591.948 132.196H592.442C592.516 132.196 592.586 132.163 592.634 132.107C592.681 132.05 592.701 131.975 592.688 131.903L592.688 131.903L592.688 131.902L592.688 131.901L592.687 131.895L592.683 131.872C592.68 131.851 592.674 131.82 592.668 131.779C592.654 131.697 592.635 131.576 592.612 131.422C592.566 131.113 592.505 130.67 592.444 130.135C592.321 129.062 592.198 127.621 592.198 126.142V106.905C592.198 105.737 593.218 104.833 594.418 104.833H595.241Z" fill="white" stroke="white" stroke-width="0.5" stroke-linejoin="round"/>
<path d="M636.814 119.86C636.822 119.758 636.768 119.662 636.677 119.616L636.348 119.45C636.273 119.413 636.184 119.415 636.112 119.457C636.039 119.498 635.992 119.574 635.986 119.657C635.743 123.33 634.37 125.913 632.253 127.583C630.13 129.257 627.228 130.037 623.888 130.037C620.41 130.037 617.6 128.817 615.657 126.658C613.711 124.496 612.613 121.369 612.613 117.518C612.613 113.583 613.712 110.457 615.656 108.316C617.598 106.179 620.407 104.999 623.888 104.999C626.571 104.999 628.947 105.572 630.809 106.802C632.666 108.029 634.031 109.922 634.676 112.601C634.703 112.714 634.803 112.793 634.919 112.793H635.248C635.321 112.793 635.39 112.761 635.438 112.705C635.485 112.65 635.506 112.576 635.495 112.504L634.507 106.203C634.495 106.129 634.452 106.064 634.387 106.026C631.544 104.341 627.547 103.338 623.723 103.338C619.148 103.338 615.377 104.679 612.747 107.158C610.117 109.638 608.656 113.233 608.656 117.684C608.656 122.053 610.117 125.646 612.747 128.147C615.375 130.646 619.146 132.03 623.723 132.03C629.05 132.03 633.919 129.85 636.282 126.109C636.304 126.075 636.317 126.036 636.32 125.995L636.814 119.86Z" fill="white" stroke="white" stroke-width="0.5" stroke-linejoin="round"/>
<path d="M652.206 127.052C650.913 127.052 649.98 127.995 649.98 129.292C649.98 130.589 650.913 131.532 652.206 131.532C653.498 131.532 654.431 130.589 654.431 129.292C654.431 127.995 653.498 127.052 652.206 127.052Z" fill="white" stroke="white" stroke-width="0.5" stroke-linejoin="round"/>
<path d="M166.725 23.5987H168.226V1.43805H178.516V0H166.725V23.5987Z" fill="white"/>
<path d="M185.474 12.1312V9.99258H187.707V12.1312H185.474ZM187.707 6.82151V8.92327H185.474V6.82151H187.707ZM193.676 6.82151V8.92327H191.442V6.82151H193.676ZM193.676 12.1312H191.442V9.99258H193.676V12.1312ZM194.079 15.4498H191.442V13.2005H193.676V13.8274H194.262C194.628 13.8274 195.068 13.7536 195.47 13.643L194.079 15.4498ZM187.707 15.4498H180.713L181.006 16.4822H187.707V19.0265H188.403C189.795 19.0265 191.442 18.3259 191.442 17.994V16.4822H198.217C198.729 16.4822 199.059 16.2979 199.169 15.8923C198.253 15.0442 196.862 13.938 196.239 13.4218C196.715 13.2374 197.082 13.0162 197.082 12.9056V7.04274C197.558 6.969 197.887 6.78463 198.034 6.5634L194.921 4.27727L193.42 5.78906H191.442V3.94541H197.558C198.034 3.94541 198.4 3.76105 198.51 3.35544C197.301 2.21238 195.361 0.663712 195.361 0.663712L193.639 2.87609H191.442V1.3643C192.248 1.25368 192.504 0.921824 192.578 0.479347L187.707 0V2.87609H181.226L181.519 3.94541H187.707V5.78906H185.657L182.288 4.38789V14.6386H182.764C184.082 14.6386 185.474 13.9011 185.474 13.6061V13.2005H187.707V15.4498ZM193.676 16.8141C193.2 17.7359 192.394 19.0633 191.552 20.317C190.271 19.6902 188.33 19.3583 185.547 19.6902L185.29 20.0589C187.231 21.0176 189.831 22.9719 191.04 24.5943C193.2 25.1843 194.335 23.1194 193.054 21.4601C194.555 20.7964 196.13 20.0589 197.118 19.4689C197.704 19.6533 198.07 19.5796 198.253 19.2846L193.676 16.8141ZM181.226 34.1444C185.29 33.6282 189.721 32.3008 192.358 30.9365C193.127 31.1577 193.456 31.0102 193.713 30.6783L189.758 27.8391C187.927 29.7196 184.229 32.227 180.933 33.6651L181.226 34.1444ZM201.769 29.0928C205.65 30.6046 208.836 32.8907 210.154 34.3288C213.926 35.5087 215.317 27.7654 201.879 28.6135L201.769 29.0928ZM203.893 22.3819C204.918 23.0088 206.09 23.8568 207.115 24.8524C203.343 24.8893 199.718 24.9262 196.386 24.963C199.425 23.7093 202.501 22.1238 204.369 20.8701C205.211 20.9807 205.54 20.8333 205.76 20.4645L201.476 18.0678C199.791 19.9483 196.642 22.8613 193.823 24.9999C188.476 25.0368 184.082 25.0368 181.372 24.9999L183.533 29.0559C183.936 28.9822 184.302 28.7241 184.521 28.2816C188.623 27.9129 192.248 27.5441 195.47 27.2492V34.6238H196.239C198.4 34.6238 199.718 33.9969 199.718 33.8125V26.8067C202.977 26.4748 205.76 26.1798 208.14 25.848C208.909 26.6592 209.568 27.5073 210.008 28.2816C214.072 29.9409 215.391 22.0132 204.149 22.0501L203.893 22.3819ZM207.518 10.73C206.969 11.7994 206.2 12.7949 205.284 13.7168C203.893 12.9424 202.684 11.9469 201.805 10.73H207.518ZM210.264 8.29643H210.594C213.487 8.29643 214.658 7.9277 214.658 6.60027C214.658 6.04717 214.475 5.71532 213.67 5.30971L213.56 3.17108H213.157C212.754 4.24039 212.388 5.01473 212.168 5.30971C212.022 5.49408 211.802 5.53095 211.619 5.53095H211.033H210.337C209.971 5.53095 209.898 5.4572 209.898 5.12535V3.35544C210.447 3.24483 210.813 3.06046 211.033 2.83922L207.884 0.184365L206.126 2.02801H204.478L200.524 0.479347V3.02359C200.524 4.75662 200.377 7.11649 198.144 9.07076L198.436 9.47636C203.197 7.96457 203.893 4.79349 203.929 3.06046H206.492V5.64157C206.492 7.55897 206.712 8.29643 209.129 8.29643H209.202L207.664 9.6976H198.62L198.949 10.73H200.927C201.586 12.4999 202.501 13.9749 203.6 15.2286C201.915 16.556 199.865 17.6253 197.594 18.4365L197.851 18.9527C200.524 18.4365 202.977 17.6622 205.101 16.6297C207.042 18.2153 209.422 19.3215 212.278 20.1695C212.608 18.3996 213.523 17.2566 214.915 16.851V16.4454C212.425 16.1872 210.044 15.7079 207.957 14.9336C209.459 13.8643 210.667 12.6106 211.619 11.1356C212.425 11.0619 212.791 10.9513 213.047 10.6563L210.264 8.29643Z" fill="white"/>
<path d="M244.319 15.671C245.198 15.671 245.711 15.0442 245.711 14.233C245.711 13.5324 245.381 12.8687 244.612 12.1312C243.44 11.0619 241.719 10.2507 239.669 9.66073L239.266 10.1401C240.877 11.6519 241.866 13.1637 242.598 14.1961C243.221 15.0811 243.697 15.671 244.319 15.671ZM247.908 12.4262C248.677 12.4262 249.189 11.91 249.189 11.0988C249.189 10.2138 248.787 9.43949 247.871 8.7389C246.809 7.96457 245.198 7.30085 243.038 6.78463L242.671 7.30085C244.539 8.81265 245.381 10.0295 246.077 10.9144C246.809 11.8731 247.175 12.4262 247.908 12.4262ZM234.762 4.49851C234.762 5.01473 234.542 5.42033 233.993 6.12092C232.565 8.00144 227.292 13.5324 225.351 15.9291C224.582 16.851 224.289 17.5147 224.289 18.289C224.289 18.9896 224.692 19.9114 225.607 20.6489C229.892 24.3362 232.748 27.1754 234.176 29.4984C235.165 31.0839 235.567 31.932 236.007 32.7432C236.446 33.4438 237.179 34.0707 238.167 34.0707C240.071 34.0707 240.694 32.7064 240.694 31.5264C240.694 30.2727 240.255 29.0559 238.973 27.4335C236.483 24.2624 232.382 21.8657 228.866 19.3583C228.097 18.8421 227.548 18.3259 227.548 17.8097C227.548 17.3303 227.914 16.851 228.866 15.8923C230.404 14.3436 234.762 10.8407 237.435 8.96014C239.01 7.89082 240.145 7.59584 240.145 6.4159C240.145 5.12535 238.424 2.98671 236.336 1.9174C235.421 1.47492 234.396 1.32743 233.26 1.21681L232.894 1.7699C233.956 2.7286 234.762 3.6873 234.762 4.49851Z" fill="white"/>
<path d="M265.668 11.1356H264.166V33.2963H253.877V34.7344H265.668V11.1356Z" fill="white"/>
<path d="M295.768 8.3333C295.731 9.18138 295.878 10.1769 296.097 10.8407C296.537 12.2418 298.331 14.1961 299.54 14.1961C300.492 14.1961 301.517 13.4955 303.092 13.1268C305.325 12.6106 312.686 11.615 314.297 11.615C314.626 11.615 314.736 11.7625 314.7 12.0943C314.59 14.1224 313.784 19.2846 313.052 23.2669C308.694 23.7093 300.418 24.668 298.734 24.668C297.233 24.668 296.281 23.8568 295.219 22.7875L294.706 23.0088C294.633 23.6356 294.816 24.8155 295.145 25.6636C295.731 27.1017 297.599 28.9084 299.1 28.9084C300.162 28.9084 301.041 28.3922 302.652 27.9866C304.483 27.5073 308.218 26.7698 311.734 26.7698C314.773 26.7698 316.75 27.286 318.068 27.286C319.24 27.286 319.826 26.8436 319.826 25.9955C319.826 24.8524 318.874 23.5619 317.08 23.1562C317.959 19.7271 318.764 16.2979 319.313 14.233C319.643 12.9793 320.851 12.3893 320.851 11.3569C320.851 9.77135 317.007 7.33773 315.652 7.33773C314.626 7.33773 314.37 8.44392 312.795 8.62828C310.781 8.8864 301.371 9.91884 299.43 9.91884C298.148 9.91884 297.452 9.1445 296.317 8.11206L295.768 8.3333Z" fill="white"/>
<path d="M332.386 6.0103C335.902 8.70203 336.817 10.0663 338.538 12.4999C339.454 13.7905 340.223 14.4542 341.394 14.4542C342.822 14.4542 343.775 13.3112 343.775 11.9837C343.775 8.18581 337.769 6.0103 332.716 5.42033L332.386 6.0103ZM336.378 26.2167C335.059 26.2167 333.778 24.8155 332.899 23.9306L332.386 24.2624C332.386 25.3318 332.752 26.7698 333.192 27.6179C333.924 29.0928 336.487 31.2683 338.575 31.2683C339.637 31.2683 340.113 30.0515 341.284 29.314C349.78 24.0781 356.444 17.5884 360.582 9.51324L359.923 9.07076C354.65 16.1873 340.332 26.2167 336.378 26.2167Z" fill="white"/>
<path d="M382.7 3.76105C384.494 4.16665 385.263 4.42476 385.373 5.42033C385.629 7.00587 385.666 9.03389 385.629 11.7625C383.542 11.9837 380.942 12.2787 378.928 12.4631C378.928 11.3569 378.965 10.2507 379.001 9.62386C379.111 8.29643 379.734 8.22268 379.734 7.3746C379.734 5.89968 376.841 4.60913 375.413 4.60913C374.497 4.60913 373.399 5.01473 372.52 5.53095L372.556 6.04717C374.241 6.52652 375.047 6.89525 375.23 7.85395C375.376 8.66515 375.449 10.6932 375.486 12.8318C373.252 13.053 370.14 13.4218 368.895 13.4218C367.869 13.4218 367.247 12.7949 366.258 11.6519L365.782 11.7994C365.709 12.7949 365.782 13.8643 366.038 14.4173C366.405 15.2286 367.833 17.3672 369.261 17.3672C370.066 17.3672 370.909 16.7772 371.861 16.4454C372.74 16.1504 373.985 15.8554 375.486 15.5973C375.413 18.9159 374.827 20.0589 374.827 20.9807C374.827 22.4925 375.852 24.668 377.207 24.668C378.415 24.668 378.965 23.9675 378.965 22.4925C378.965 20.7964 378.928 18.1046 378.928 15.0811C380.832 14.8598 383.322 14.6017 385.629 14.4173C385.556 18.7315 385.043 23.1194 383.579 25.5899C381.528 29.1297 378.306 31.3421 375.266 32.9276L375.596 33.5544C380.539 32.227 384.494 29.9409 386.911 26.4011C388.925 23.5619 389.254 19.3583 389.438 14.233H389.767C393.429 14.233 395.37 14.8598 396.688 14.8598C397.713 14.8598 398.336 14.6386 398.336 13.4218C398.336 11.6519 395.882 10.6563 393.722 10.6563C392.989 10.6563 392.55 11.0619 389.438 11.3938C389.438 10.3244 389.474 9.1445 389.511 7.9277C389.621 5.82594 390.463 6.0103 390.463 5.08847C390.463 3.83479 387.68 2.13863 385.739 2.13863C384.824 2.13863 383.762 2.61798 382.663 3.20795L382.7 3.76105Z" fill="white"/>
<path d="M417.194 6.4159C418.915 6.82151 419.904 7.44835 419.977 8.48079C420.197 12.0575 420.05 21.4601 419.867 23.2669C419.721 24.7418 419.245 25.2211 419.245 26.0692C419.245 27.1385 421.405 29.8671 422.76 29.8671C423.786 29.8671 424.481 28.6135 425.323 28.0604C429.864 24.9262 435.027 20.2802 438.103 15.1548L437.517 14.6755C433.38 18.4734 428.363 21.9763 424.298 23.6725C423.749 23.8937 423.456 23.7093 423.456 23.1194C423.419 20.5014 423.676 12.7212 423.969 10.5826C424.152 9.21825 425.067 9.03389 425.067 8.03832C425.067 6.82151 422.101 4.97786 420.124 4.97786C419.098 4.97786 418.329 5.16222 417.158 5.78906L417.194 6.4159ZM411.921 13.0162C411.921 18.3259 408.369 26.2167 402.803 31.2683L403.279 31.8214C410.932 27.876 414.924 21.497 416.169 15.2286C416.352 14.3067 417.121 13.6061 417.121 12.6843C417.121 11.1725 413.825 9.36575 412.141 9.32887C411.042 9.32887 410.127 9.66073 409.321 9.95571V10.5826C410.566 11.1356 411.921 11.8362 411.921 13.0162Z" fill="white"/>
<path d="M447.771 4.42476C449.089 7.04274 450.261 8.40705 452.568 8.40705C455.643 8.40705 461.539 7.41147 464.468 6.74776C465.64 6.48965 465.97 6.0103 465.97 5.27284C465.97 3.79792 464.432 3.02359 462.015 3.02359C461.502 3.02359 460.953 3.53981 459.159 4.01916C457.621 4.42476 454.801 5.16222 452.128 5.16222C450.92 5.16222 449.638 5.01473 448.137 4.0929L447.771 4.42476ZM442.607 12.2787C442.534 13.1637 442.571 14.0486 442.827 14.7123C443.266 15.966 445.097 17.7359 446.342 17.7359C447.404 17.699 448.723 17.0722 449.968 16.6666C451.139 16.2979 453.776 15.7079 456.229 15.3392C456.449 15.7448 456.522 16.1873 456.522 16.5929C456.522 19.4689 453.739 27.6179 445.757 33.112L446.306 33.7757C454.545 30.2359 458.207 24.668 460.038 20.4645C460.88 18.6577 461.795 18.2521 461.795 17.3303C461.795 16.5191 460.916 15.7448 459.598 14.9336C462.088 14.6755 464.432 14.5648 466.043 14.5648C468.13 14.5648 469.998 14.9704 470.803 14.9704C471.792 14.9704 472.341 14.6755 472.341 13.4586C472.341 11.9837 469.888 10.7669 467.581 10.7669C467.215 10.7669 466.446 11.2094 463.956 11.5044C459.012 12.0575 448.283 13.6799 445.793 13.6799C444.658 13.6799 443.999 12.9793 443.047 12.0943L442.607 12.2787Z" fill="white"/>
<path d="M491.563 10.1032C492.222 10.4351 493.138 11.0619 493.138 11.6519C493.138 13.8274 485.375 22.2713 478.747 26.1798L479.04 26.6961C483.91 25.2211 488.304 22.0869 490.355 20.4645C490.428 20.7595 490.465 21.0545 490.465 21.4232C490.465 22.6769 490.465 25.2949 490.098 28.3553C489.989 29.2772 489.805 29.9409 489.805 30.4571C489.805 32.0426 490.574 33.5176 492.186 33.5176C493.357 33.5176 493.98 32.5957 493.98 31.3789C493.98 29.9778 493.724 26.1061 493.833 22.4188C493.87 21.5707 494.126 21.0176 494.126 20.5014C494.126 19.9114 493.394 19.3583 492.442 18.6577C494.053 17.1459 495.408 15.671 496.36 14.7123C497.129 13.9749 497.862 13.9749 497.862 13.053C497.862 11.9469 496.031 10.2876 494.346 9.80822C493.431 9.51323 492.479 9.58698 491.673 9.66073L491.563 10.1032Z" fill="white"/>
<path d="M515.109 6.0103C518.624 8.70203 519.54 10.0663 521.261 12.4999C522.176 13.7905 522.945 14.4542 524.117 14.4542C525.545 14.4542 526.497 13.3112 526.497 11.9837C526.497 8.18581 520.492 6.0103 515.438 5.42033L515.109 6.0103ZM519.1 26.2167C517.782 26.2167 516.5 24.8155 515.621 23.9306L515.109 24.2624C515.109 25.3318 515.475 26.7698 515.914 27.6179C516.647 29.0928 519.21 31.2683 521.297 31.2683C522.359 31.2683 522.835 30.0515 524.007 29.314C532.502 24.0781 539.167 17.5884 543.305 9.51324L542.646 9.07076C537.373 16.1873 523.055 26.2167 519.1 26.2167Z" fill="white"/>
<path d="M562.583 9.10763C563.059 8.40705 563.535 7.74333 563.938 7.04274C564.561 6.08405 565.037 5.93655 565.037 5.12535C565.037 4.20352 562.217 2.65486 559.8 2.54424C558.592 2.47049 557.933 2.61798 557.237 2.76548L557.127 3.2817C558.299 3.90854 559.178 4.79349 559.178 5.49408C559.178 7.85395 554.381 15.1548 548.449 20.0589L548.925 20.7226C553.648 18.6577 557.896 15.0073 561.082 11.0988C561.741 11.615 562.327 11.9837 562.766 11.9837C563.462 11.9837 564.048 11.7625 564.817 11.5044C565.879 11.1725 568.515 10.5826 569.284 10.5826C569.724 10.5826 569.907 10.7669 569.724 11.2831C566.648 18.9896 558.152 28.3185 548.851 33.3332L549.291 34.0338C561.265 29.8303 568.808 22.345 574.191 12.9424C574.85 11.8362 576.278 11.4675 576.278 10.4351C576.278 8.92327 572.543 6.969 571.445 6.969C570.639 6.969 570.017 7.85395 569.101 8.14893C568.076 8.51766 563.865 9.10763 562.583 9.10763ZM571.628 2.98671C573.349 4.46163 574.228 5.78906 574.924 6.78463C575.546 7.66959 575.986 8.18581 576.608 8.18581C577.377 8.18581 577.926 7.59584 577.926 6.82151C577.926 6.12092 577.67 5.49408 576.864 4.75662C575.729 3.72417 574.008 3.02358 571.957 2.50736L571.628 2.98671ZM574.814 0.62684C576.754 2.10176 577.487 3.17108 578.183 4.01916C578.878 4.94098 579.281 5.53095 580.014 5.53095C580.746 5.53095 581.222 5.01473 581.222 4.20352C581.222 3.35544 580.856 2.61798 579.904 1.9174C578.878 1.17993 577.231 0.553095 575.143 0.147491L574.814 0.62684Z" fill="white"/>
</svg>
